<svg xmlns="http://www.w3.org/2000/svg" width="49" height="40" viewBox="0 0 49 40">
    <g fill="none" fill-rule="evenodd">
        <path d="M-16-29h80v80h-80z" opacity=".545"/>
        <g stroke="#0F4C97" stroke-linecap="round" stroke-width="2">
            <path d="M47.152 38.516H32M39.424 21.58V38.6M46.438 1.07H32c-2.591 13.55-.185 20.324 7.22 20.324 7.403 0 9.81-6.775 7.218-20.324zM43.5 5.297v4.578M47.349 9.875H31.2"/>
        </g>
        <g stroke="#0F4C97" stroke-linecap="round" stroke-width="2">
            <path d="M17 38.5H2M9.5 22v17M16.02 1H1.98C-.54 14.333 1.8 21 9 21c7.2 0 9.54-6.667 7.02-20zM17 9.5H1M5.5 1v5"/>
        </g>
    </g>
</svg>
