<svg xmlns="http://www.w3.org/2000/svg" width="67" height="52" viewBox="0 0 67 52">
    <g fill="none" fill-rule="evenodd">
        <path d="M-6-15h80v80H-6z" opacity=".545"/>
        <g stroke="#0F4C97" stroke-width="1.7">
            <g transform="translate(13.32 2.887)">
                <circle cx="21.698" cy="21.698" r="20.848"/>
                <path d="M6.478 19.356c-.135.83-.203 1.673-.203 2.526 0 8.618 6.986 15.605 15.604 15.605 8.618 0 15.604-6.987 15.604-15.605 0-1.876-.33-3.705-.968-5.424L6.478 19.356zM32.546 10.659A15.558 15.558 0 0 0 21.7 6.275c-2.61 0-5.122.642-7.357 1.839l18.203 2.545z"/>
            </g>
            <path stroke-linecap="round" stroke-linejoin="round" d="M66.15 1v50c-2.682-.12-4.023-.914-4.023-2.383 0-1.47.45-8.702 1.352-21.697l-2.045-3.09c.07-7.743.3-13.402.693-16.977C62.52 3.28 63.861 1.328 66.151 1z"/>
            <g stroke-linecap="round" stroke-linejoin="round">
                <path d="M10.936 1.943l-.389 12.989c-1.048 2.263-1.978 3.394-2.79 3.394-.039-.059.633 21.552.633 24.813V51H4.887"/>
                <path d="M1.6 2.311l.009 12.62c1.048 2.264 1.978 3.395 2.789 3.395.04-.059-.632 21.552-.632 24.813V51h3.503M6.269 2.234v9.861"/>
            </g>
        </g>
    </g>
</svg>
