<svg xmlns="http://www.w3.org/2000/svg" width="114" height="42" viewBox="0 0 114 42">
    <g fill="#000" fill-rule="evenodd">
        <path fill-rule="nonzero" d="M0 21v21h114V0H0v21zm112.095 0v19.109l-55.065-.02-55.075-.03-.03-19.089-.02-19.079h110.19V21z"/>
        <path d="M9.826 10.191v.538l.431.07c.23.03.571.09.752.119l.32.05-.02 10.022-.03 10.012-.721.08-.732.09v1.174h7.62v-1.174l-.722-.09-.732-.08-.03-4.558-.02-4.548h10.026v4.518c0 3.772-.02 4.529-.14 4.568-.08.03-.461.09-.852.13l-.712.07v1.164h7.82v-1.174l-.671-.07c-.361-.04-.722-.09-.802-.12-.11-.04-.13-1.83-.13-10.032v-9.982l.4-.06c.22-.03.582-.09.802-.12l.401-.06V9.655h-7.82V10.729l.481.06c.26.04.642.09.852.12l.371.059v8.54H15.942v-8.54l.431-.07c1.183-.179 1.073-.11 1.073-.707v-.537h-7.62v.537zM37.99 9.933c-2.086 1.075-1.253 4.2 1.113 4.2.712 0 1.263-.26 1.724-.787.752-.875.752-2.03-.01-2.906-.701-.826-1.834-1.025-2.827-.507zM45.82 10.142v.487l.682.08.672.09.03 10.171.02 10.162-.27.06c-.16.03-.472.08-.702.109l-.431.07v.975h7.119v-.975l-.422-.07c-.24-.03-.551-.08-.702-.11l-.28-.06V9.655H45.82v.488zM59.587 12.182l-2.036.607v3.434h-3.108V17.716h2.998l.03 6.04c.04 6.729.04 6.66.732 7.615 1.053 1.433 4.201 1.582 7.951.368l.622-.21v-1.094l-.301.07c-.17.04-.882.07-1.584.07-1.825.01-2.407-.21-2.848-1.095l-.23-.468-.03-5.653-.03-5.643H65.573V16.223h-3.81v-2.34c0-1.283-.03-2.338-.07-2.328-.05.01-.993.289-2.106.627z"/>
        <path fill-rule="nonzero" d="M74.997 15.785c-1.504.199-3.379.945-4.431 1.771-1.234.976-2.226 2.528-2.687 4.19-.311 1.115-.391 3.593-.16 4.917.33 1.851.872 2.996 1.964 4.09 1.304 1.304 3.099 1.941 5.816 2.05 2.867.13 5.213-.626 6.918-2.219 1.614-1.502 2.366-3.244 2.476-5.702.07-1.563-.08-2.747-.51-4.001-.442-1.304-.863-1.971-1.816-2.917-.651-.656-.982-.885-1.754-1.273-1.314-.637-2.326-.866-4.061-.916-.772-.02-1.564-.01-1.755.01zm1.805 1.234c1.173.219 1.975.886 2.557 2.14.632 1.353.852 2.667.852 5.165 0 4.986-1.223 7.236-3.96 7.246-.993.01-1.715-.27-2.326-.906-1.274-1.294-1.895-4.3-1.635-7.823.26-3.533 1.334-5.444 3.239-5.822.591-.11.682-.11 1.273 0z"/>
        <path d="M97.376 15.934c-1.253.16-2.797.846-4.11 1.831-.402.299-.783.548-.833.548-.05 0-.09-.468-.09-1.045v-1.045h-5.715V17.298l.481.06c.26.04.592.089.752.119l.27.06V31.131l-.57.06c-.933.109-.933.109-.933.666v.488H93.847v-.498c0-.278-.03-.497-.07-.507-.05-.01-.371-.06-.732-.13l-.652-.11V19.558l.501-.329c.281-.179.863-.467 1.304-.637.692-.278.922-.318 1.704-.328.993 0 1.454.17 1.976.717.792.826.902 1.751.862 7.593l-.03 4.529-.652.11c-.36.069-.682.119-.722.129-.05.01-.08.229-.08.507v.498H104.475v-.488c0-.557 0-.557-.922-.657l-.572-.07-.03-5.792c-.03-5.732-.04-5.792-.27-6.479-.312-.945-.612-1.433-1.214-1.97-.592-.528-1.344-.836-2.346-.966-.802-.11-.872-.11-1.745.01zM35.493 16.71v.488l.482.06c.26.04.591.09.752.12l.27.059-.02 6.827-.03 6.838-.651.11c-.361.069-.682.119-.722.129-.05.01-.08.229-.08.507v.498h7.229l-.03-.458c-.04-.547-.11-.607-.903-.687l-.582-.06V16.224h-5.715v.487z"/>
    </g>
</svg>
